<svg id="Layer_1" enable-background="new 0 0 512 512" height="512" viewBox="0 0 512 512" width="512" xmlns="http://www.w3.org/2000/svg"><path d="m483.691 213.257c-17.726-10.949-39.434-11.923-58.067-2.607l-10.023 5.012v-96.229c0-8.284-6.732-15-15.016-15-37.494 0-68.967 26.181-77.155 61.215l-80.922-80.922c-5.855-5.855-15.355-5.863-21.221.008-2.392 2.392-4.62 4.903-6.679 7.521-3.338-5.461-7.335-10.574-11.949-15.235-5.745-6.109-15.499-6.361-21.531-.328l-99.164 99.163c-28.574 28.573-45.732 65.521-49.183 105.31h-17.781c-8.284 0-15 6.716-15 15v128.533c0 8.284 6.716 15 15 15h160.667c2.329 0 4.625-.542 6.708-1.583l321.333-160.667c5.082-2.541 8.292-7.735 8.292-13.417 0-20.825-10.58-39.805-28.309-50.774zm-281.353-18.958c2.394-2.393 4.622-4.905 6.682-7.524 3.415 5.588 7.517 10.807 12.265 15.555l35.782 35.782v47.898l-58.09 23.236-31.672-63.337c-3.303-6.606-2.014-14.554 3.207-19.775 8.878-8.878 20.359-20.359 31.826-31.835zm118.995 140.796-149.208 74.604h-142.125v-98.533h17.133c8.284 0 15-6.716 15-15v-.008c0-37.431 14.576-72.622 41.043-99.089l87.047-87.046c4.23 7.722 6.477 16.427 6.477 25.477 0 14.198-5.53 27.545-15.577 37.589-11.47 11.479-22.949 22.957-31.824 31.833-14.367 14.366-17.914 36.23-8.827 54.405l37.846 75.682c3.49 6.977 11.743 10.115 18.987 7.218l80.333-32.133c5.695-2.278 9.429-7.793 9.429-13.927v-64.267c0-3.979-1.581-7.793-4.394-10.607l-40.175-40.175c-10.04-10.04-15.569-23.388-15.569-37.585 0-9.051 2.247-17.756 6.478-25.479l87.927 87.926v129.115zm64.267-94.713c0 29.695-12.691 57.082-34.267 75.998v-132.697c0-21.931 14.411-40.56 34.267-46.918zm18.73 53.215c6.201-13.975 9.917-28.938 10.963-44.241l23.746-11.873c9.27-4.634 20.069-4.149 28.876 1.292 6.283 3.887 10.762 9.797 12.818 16.62z"/></svg>