<svg xmlns="http://www.w3.org/2000/svg" xmlns:xlink="http://www.w3.org/1999/xlink" width="1580.565" height="1257.824" viewBox="0 0 1580.565 1257.824"><defs><style>.a{fill:url(#a);}</style><linearGradient id="a" x1="0.5" x2="0.5" y2="1" gradientUnits="objectBoundingBox"><stop offset="0" stop-color="#39dde9"/><stop offset="1" stop-color="#459a9f"/></linearGradient></defs><path class="a" d="M-589.721,954.912c-148.792-42.007,0-625,0-625s23.319-1.305,64.1-3.367c-266.314-58.022,109.2-189.243,192.3-221.193,40.829-15.7,47.785,16.808,59.657,49.315,12.771,34.964,31.232,69.929,103.658,44.906C-30.249,151.285,117.364-78.379,225.718-87.8c48.529-4.22,53.666,28.1,58.76,60.42,6.279,39.844,12.492,79.687,99.845,51.075C542.536-28.128,709.779-337.094,858.569-295.087s0,625,0,625-2.486.13-7.253.373c236.634,59.906-167.514,192.8-249.142,224.187-40.83,15.7-47.786-16.808-59.658-49.315-12.771-34.965-31.233-69.93-103.658-44.906C299.1,508.54,151.484,738.2,43.13,747.625c-48.53,4.219-53.668-28.1-58.762-60.421-6.279-39.843-12.492-79.687-99.844-51.074C-263.666,684.669-419.793,958.8-561.244,958.824A104.145,104.145,0,0,1-589.721,954.912Z" transform="translate(655.851 299)"/></svg>